<?xml version="1.0" encoding="utf-8"?>
<!-- Generator: Adobe Illustrator 26.0.1, SVG Export Plug-In . SVG Version: 6.00 Build 0)  -->
<svg version="1.1" id="Layer_1" xmlns="http://www.w3.org/2000/svg" xmlns:xlink="http://www.w3.org/1999/xlink" x="0px" y="0px"
	 viewBox="0 0 150 150" style="enable-background:new 0 0 150 150;" xml:space="preserve">
<style type="text/css">
	.st0{fill:none;stroke:#000000;stroke-width:6;stroke-miterlimit:10;}
</style>
<g>
	<path class="st0" d="M109.3,21.2c0.1,0.2,0.2,0.4,0.3,0.6c0.5-0.3,1.6-0.8,1.5-0.8c-0.5-1.3-0.9-3.4-1.9-3.7
		c-3.8-1.2-7.7-2.2-11.9-0.8c-3.3,1.1-6.3-0.1-9.1-2.2c-1.1-0.8-3-0.9-4.5-0.9c-0.4,0-1.1,1.4-1.3,2.3c-0.2,1.7-1,2.1-2.5,1.7
		c-1.7-0.4-3.5-0.6-5.2-1C74,16.2,73.2,15.6,73,15c-0.5-1.7-1.5-1.9-3-1.8c-1.1,0.1-2.2,0-3.2,0c-2.3-0.2-3.8-2.9-2.6-4.8
		c0.3-0.4,0.4-1.2,0.2-1.7c-1-3.2-1.8-3.7-5.1-3.2c-1.5,0.2-3.1,0.3-4.6,0.6c-6.6,1-13.5,1-19.7,4.2c-0.4,0.2-0.9,0.3-1.3,0.3
		c-2.8-0.3-4.8,1-6.6,3.1c-0.9,1.1-2.2,2-3.1,3.1c-0.9,1.2-1.3,2.6-2.1,3.9c-0.5,1-0.9,2.3-1.8,2.7c-4.4,2.1-7.2,5.5-9.1,9.9
		C10.6,32.2,9.9,33,9.6,34c-0.5,1.3-0.9,2.7-1,4.1c-0.2,4-0.3,8-0.4,11.9c0,0.7,0.3,1.7,0.8,2.2c4.7,5.6,9.4,11.2,14.1,16.9
		c1,1.2,2,1.4,3.4,1c3.8-1.1,7.6-1.7,11.6-1c3.4,0.6,6.6-0.2,9.7-1.5c1.8-0.8,3.2-0.6,4.5,0.8c1.8,2,4,3,6.8,2.3
		c1.4-0.4,2.1,0.4,2,1.8c-0.1,2-0.4,4-0.3,6c0,1.2,0.2,2.7,1,3.5c2.9,3,4,6.7,5.3,10.6c1.8,5.8,2.2,11.4-0.5,16.9
		c-0.9,1.9-0.6,3.6,0.3,5.5c2.4,5.2,5.4,10.3,5.5,16.3c0,2.5,1.1,4.4,2.8,6.1c2.4,2.4,4.3,5,3.6,8.7c-0.3,1.6,0.9,1.9,2.2,1.7
		c5.1-0.7,10.2-1.4,15.3-2.2c1-0.2,2.2-0.8,2.9-1.5c3.1-3.3,6-6.8,9-10.2c1.4-1.6,3-3.1,3.1-5.5c0-0.5,0.7-1,0.9-1.5
		c0.5-0.9,1.2-1.8,1.3-2.7c0.3-2,0.2-4,0.3-6c0.1-2.3,1.9-4.8,4.1-5.6c1.1-0.4,2.2-0.8,3.3-1c1.6-0.3,2-1.2,2.1-2.7
		c0.2-6.1-0.2-12.1-2.2-18c-0.3-0.8-0.4-2,0-2.6c1.8-2.5,4-4.7,5.6-7.2c2.2-3.4,4.8-6.1,8.8-7.3c0.8-0.2,1.6-1,2-1.7
		c2.1-4.4,4.1-9,6.1-13.5c0.2-0.5,0.3-1.4,0-1.7s-1.1-0.3-1.7-0.2c-2.8,0.6-5.6,1.2-8.3,2.1c-2.1,0.7-3,0-4.1-1.6
		c-2.1-2.8-4.5-5.4-6.7-8.1c-0.8-1-1.8-1.9-2.3-3.1c-2.7-6.3-5.7-12.5-9.9-18c-1-1.3-1.8-2.7-2.6-4.1c-0.3-0.5-0.2-1.4,0-1.9
		C108,21.5,108.8,21.4,109.3,21.2z M142.6,110.5c-0.7-1-1.6-2.3-2.4-3.6c-0.9,0.6-1.9,1.2-2.6,1.9c-2,2.1-3.4,4.9-6.6,5.9
		c-0.4,0.1-0.9,0.9-0.9,1.4c-0.4,3.1-0.9,6.2-0.8,9.3c0.1,2.1,1.2,4.3,1.9,6.4c0.1,0.3,0.5,0.6,0.9,0.7c1.5,0.4,4.8-1.5,5.3-3.1
		c1.7-5.7,3.3-11.4,4.9-17C142.3,111.9,142.4,111.5,142.6,110.5z"/>
</g>
</svg>
