<?xml version="1.0" encoding="utf-8"?>
<!-- Generator: Adobe Illustrator 26.0.1, SVG Export Plug-In . SVG Version: 6.00 Build 0)  -->
<svg version="1.1" id="Layer_1" xmlns="http://www.w3.org/2000/svg" xmlns:xlink="http://www.w3.org/1999/xlink" x="0px" y="0px"
	 viewBox="0 0 150 150" style="enable-background:new 0 0 150 150;" xml:space="preserve">
<g>
	<path d="M52.7,29.9c0-1.1,0-1.9,0-2.7c0.2-6.9,5.8-12.6,12.7-12.8c6.4-0.1,12.8-0.1,19.2,0c6.9,0.2,12.5,5.9,12.7,12.8
		c0,0.8,0,1.6,0,2.6c0.8,0,1.5,0,2.2,0c14.4,0,28.8,0,43.1,0c5,0,7.4,2.4,7.4,7.4c0,30,0,60.1,0,90.1c0,5.1-2.4,7.5-7.5,7.5
		c-45,0-90,0-135,0c-5.1,0-7.5-2.4-7.5-7.5c0-30,0-60,0-90c0-5,2.4-7.4,7.4-7.4c14.3,0,28.7,0,43,0C51.1,29.9,51.7,29.9,52.7,29.9z
		 M82.6,83.4c8.3,0,16.3,0.2,24.3,0c16.5-0.4,30.8-11.7,33.4-26.4c0.8-5,0.6-10.1,0.7-15.2c0.1-2.7-0.1-2.8-3.1-2.8
		c-26.2,0-52.5,0-78.7,0c-15.9,0-31.8,0-47.8,0c-2.3,0-2.5,0.3-2.5,2.3c0,3.3,0,6.6,0,9.9C8.8,69,24.5,83.5,44.2,83.5
		c7.1,0,14.1,0,21.1,0c0.6,0,1.1-0.1,1.8-0.1c0-1.4,0-2.5,0-3.7c0.2-3.9,3.5-6.8,7.6-6.9c4.2,0,7.6,2.9,7.7,6.9
		C82.6,80.8,82.6,82,82.6,83.4z M8.7,72.3c0,0.5,0,1,0,1.5c0,16.7,0,33.2,0,49.9c0,2.3,0.3,2.6,2.8,2.6c42.2,0,84.4,0,126.6,0
		c2.4,0,2.7-0.3,2.7-2.5c0-16.7,0-33.4,0-50.1c0-0.4,0-1,0-1.9c-0.5,0.6-0.7,0.9-0.8,1.1c-8.1,12.4-19.8,18.8-35.3,18.9
		c-6.8,0.1-13.5,0-20.3,0c-0.7,0-1.2,0-2.1,0c0,1.5,0,2.7,0,4c0,1.1,0.1,2.4-0.2,3.5c-0.8,3.5-4.4,6-8.1,5.6c-4-0.4-7-3.3-7.1-7
		c-0.1-2,0-4.1,0-6.3c-0.8,0-1.5,0-2.2,0c-6.9,0-13.7,0-20.6,0c-10,0-18.6-3-26.3-9C14.5,79.8,11.4,76.3,8.7,72.3z M60.6,29.7
		c9.7,0,19.4,0,29.1,0c1-5.6-2.2-10.6-7-10.7c-5-0.1-10.2-0.1-15.2,0C62.8,19.2,59.7,24,60.6,29.7z M71.5,89L71.5,89
		c0,2.2,0,4.3,0,6.5s1.5,3.6,3.6,3.6s3.4-1.4,3.4-3.5c0-4.4,0-8.8,0-13.2c0-2.2-1.5-3.6-3.6-3.6c-2,0-3.4,1.4-3.4,3.5
		C71.5,84.6,71.5,86.8,71.5,89z"/>
</g>
</svg>
