<?xml version="1.0" encoding="utf-8"?>
<!-- Generator: Adobe Illustrator 26.0.1, SVG Export Plug-In . SVG Version: 6.00 Build 0)  -->
<svg version="1.1" id="Layer_1" xmlns="http://www.w3.org/2000/svg" xmlns:xlink="http://www.w3.org/1999/xlink" x="0px" y="0px"
	 viewBox="0 0 800 800" style="enable-background:new 0 0 800 800;" xml:space="preserve">
<path d="M701,192H111c-24.3,0-44-19.7-44-44v-24c0-24.3,19.7-44,44-44h590c24.3,0,44,19.7,44,44v24C745,172.3,725.3,192,701,192z"/>
<path d="M701,362.5H111c-24.3,0-44-19.7-44-44v-24c0-24.3,19.7-44,44-44h590c24.3,0,44,19.7,44,44v24
	C745,342.8,725.3,362.5,701,362.5z"/>
<path d="M701,543.3H111c-24.3,0-44-19.7-44-44v-24c0-24.3,19.7-44,44-44h590c24.3,0,44,19.7,44,44v24
	C745,523.6,725.3,543.3,701,543.3z"/>
<path d="M695,724H105c-24.3,0-44-19.7-44-44v-24c0-24.3,19.7-44,44-44h590c24.3,0,44,19.7,44,44v24C739,704.3,719.3,724,695,724z"/>
</svg>
