<?xml version="1.0" encoding="utf-8"?>
<!-- Generator: Adobe Illustrator 26.0.1, SVG Export Plug-In . SVG Version: 6.00 Build 0)  -->
<svg version="1.1" id="Layer_1" xmlns="http://www.w3.org/2000/svg" xmlns:xlink="http://www.w3.org/1999/xlink" x="0px" y="0px"
	 viewBox="0 0 800 800" style="enable-background:new 0 0 800 800;" xml:space="preserve">
<g>
	<path d="M661.8,656.9c-5.5,6.3-10.4,13.3-16.8,18.6c-22.1,18.6-49,18.4-70.9-0.4c-80.9-69.5-161.8-139-242.6-208.5
		c-14.4-12.4-28.9-24.9-43.5-37.1c-1.8-1.5-4.8-2.3-7.2-2.2c-20.9,0.7-41.6-0.3-62.1-5.1c-26.8-6.3-51.5-17.3-74.1-33
		c-26.9-18.7-48.4-42.4-64.4-71c-13.7-24.5-22.4-50.7-25.6-78.7c-5.1-45,2.4-87.9,24.4-127.4c32.5-58.1,81.5-95,147.1-107.7
		c61.1-11.9,117.6,1.1,167.7,38.2c44.2,32.7,71.8,76.5,82.4,130.5c3,15.1,2.7,30.7,4.2,46.1c0.2,2.1,1,4.6,2.3,6.2
		c61.2,77.3,122.6,154.5,183.9,231.7c19,24,38.2,47.8,57.1,72c18.3,23.5,16.5,51.6-4.3,72.9c-1.9,1.9-4.1,3.4-5.2,4.4
		c8.2,10.4,16.9,19.2,22.9,29.7c21.1,36.5,19.9,73.3-3,108.4c-21.3,32.8-53.3,48.6-91.3,53.6c-30.2,3.9-58.4-3.7-85.5-15.8
		c-20.9-9.4-41.2-20.2-61.7-30.6c-21.2-10.8-41.9-22.9-65.1-29.4c-26.8-7.4-51.8-2.3-75.5,11.1c-15.1,8.5-27.4,20.3-38.3,33.6
		c-6.8,8.2-13.9,15.5-25.2,17.6c-13.5,2.6-27.4-2.5-35.6-14c-8.4-11.7-9.4-27-1.6-38.7c11.6-17.5,26.4-32.2,42.7-45.3
		c25-20,53.3-32.1,85-37.1c37.1-5.9,71.6,2.3,104.5,18.2c28.9,13.9,57.1,29.1,85.7,43.5c14.3,7.2,29.1,13.4,45.2,15.8
		c20.2,3,38.3-1.7,53-16.3c13.3-13.2,13.2-31.9,0.1-45.3c-2.2-2.3-4.7-4.3-7.1-6.4C662.9,658.2,662.3,657.5,661.8,656.9z M125,213.9
		c0.4,78.6,63.9,142,142.1,141.7c77.8-0.3,142-62.4,141.6-142.2C408.2,133,344.9,72,266.8,72C185.5,72,125,137.6,125,213.9z
		 M658.4,561c-66.6-83.8-133.3-167.6-200.3-252c-20.7,41.3-51.7,71.7-91.5,93.9c81.3,69.9,161.8,139.1,241.9,207.9
		C625.4,594,641.7,577.7,658.4,561z"/>
	<path d="M506.4,486.2c-12.6,0-21-3.5-27.8-10.3c-16.9-16.8-33.9-33.6-50.6-50.6c-14-14.3-13.7-36.5,0.4-50.4
		c13.8-13.6,35.9-13.7,50,0.2c17,16.7,33.9,33.6,50.6,50.6c10.5,10.6,13.3,25.8,7.4,39C530,478.6,518.8,485.7,506.4,486.2z"/>
</g>
</svg>
