<?xml version="1.0" encoding="utf-8"?>
<!-- Generator: Adobe Illustrator 26.0.1, SVG Export Plug-In . SVG Version: 6.00 Build 0)  -->
<svg version="1.1" id="_x32_" xmlns="http://www.w3.org/2000/svg" xmlns:xlink="http://www.w3.org/1999/xlink" x="0px" y="0px"
	 viewBox="0 0 800 800" style="enable-background:new 0 0 800 800;" xml:space="preserve">
<g>
	<path d="M758.2,182.2h-349L518.2,73.3c2.7-2.7,2.7-7.1,0-9.9l-27.2-27.2c-2.7-2.7-7.1-2.7-9.8,0L341,176.3L200.9,36.2
		c-2.7-2.7-7.1-2.7-9.9,0l-27.2,27.2c-2.7,2.7-2.7,7.1,0,9.9l109,108.9H41.8C18.7,182.2,0,201,0,224.1v500
		c0,23.1,18.7,41.8,41.8,41.8h716.4c23.1,0,41.8-18.8,41.8-41.8v-500C800,201,781.3,182.2,758.2,182.2z M599.4,658.1
		c0,13.3-10.8,24.1-24.1,24.1H104.4c-13.3,0-24.1-10.8-24.1-24.1V299.8c0-13.3,10.8-24.1,24.1-24.1h470.8
		c13.3,0,24.1,10.8,24.1,24.1V658.1z M739.4,521.6h-70.5v-70.5h70.5V521.6z M701.6,365.9c-21.7,0-39.3-17.6-39.3-39.4
		c0-21.7,17.6-39.4,39.3-39.4s39.3,17.6,39.3,39.4C741,348.2,723.4,365.9,701.6,365.9z"/>
</g>
</svg>
