<?xml version="1.0" encoding="utf-8"?>
<!-- Generator: Adobe Illustrator 26.0.1, SVG Export Plug-In . SVG Version: 6.00 Build 0)  -->
<svg version="1.1" id="Layer_1" xmlns="http://www.w3.org/2000/svg" xmlns:xlink="http://www.w3.org/1999/xlink" x="0px" y="0px"
	 viewBox="0 0 800 800" style="enable-background:new 0 0 800 800;" xml:space="preserve">
<style type="text/css">
	.st0{fill:#FFFFFF;}
</style>
<g>
	<path d="M3.5,399.5C2.3,176.6,183.4,0.7,400.5,0.4c221.6-0.2,406.8,184.5,397.7,416.1c-8.5,215.4-184.6,385.9-399.8,383
		C166.5,796.2,1.3,608.1,3.5,399.5z M511.9,737.9c-17-12-32.2-22.8-47.6-33.1c-6.6-4.4-7.7-8.6-5-16.1
		c15.8-43.5,31.3-87.1,46.3-130.9c2.9-8.1,6.9-10.4,15-10.4c44.4,0.3,88.9,0.3,133.3-0.1c9.1-0.1,12.7,3.4,15.4,11.6
		c5.4,17.7,11.6,35.2,18.4,55.1c44.9-66.8,68.5-137.4,70.8-218.8c-18,13.4-33.1,24.2-48,35.7c-5.8,4.5-10,4.6-15.9,0.1
		c-36.3-27.7-72.7-55.2-109.4-82.3c-6.9-5.2-8.8-9.7-6-18.3c13.3-41.4,26.2-82.8,38-124.8c3.6-12.7,9.5-16.6,22.1-15.7
		c16.8,1.1,33.7,0.2,53.9,0.2C643.4,124.6,582.7,81.3,505.9,55c6.7,20.2,12,37.6,18.5,54.5c3.5,9.1,0.9,13.9-6.4,19.1
		c-37,26-73.7,52.3-110.3,79c-6.9,5-11.4,4.5-18-0.3c-35.6-25.9-71.2-51.8-107.4-76.7c-10.3-7.1-12.2-13.6-7.4-24.9
		c6.4-14.9,10.6-30.7,16.6-48.4c-75.6,26.4-136,68.3-184,132.8c20.6,0,37.6,0.3,54.9-0.1c8.2-0.2,12.4,2.3,14.8,10.5
		c12.8,43.6,26,87.1,39.8,130.4c2.5,8.2,0.9,12.4-5.6,17.2c-36.1,27.2-72,54.9-107.8,82.5c-5.7,4.5-10,4.8-16,0.3
		c-14.9-11-30.4-21.3-46.3-32.4c-6.8,53.8,26.6,171.6,67.7,213.1c6-18,12.4-35.6,17.7-53.3c2.5-8.6,6.8-11.3,15.6-11.2
		c44.9,0.3,89.6,0.3,134.5,0c8.7-0.1,12.8,2.5,15.7,11.1c14.3,43.2,28.9,86.4,43.8,129.3c3.1,8.6,1.3,13.3-6,18
		c-15.3,9.9-29.8,20.6-46.9,32.5C360.5,763.2,434.8,764.5,511.9,737.9z"/>
	<path class="st0" d="M512,738.2c-77.2,26.6-151.6,25.3-228.8,0.1c16.9-11.9,31.6-22.6,46.9-32.5c7.4-4.8,9.1-9.4,6-18
		c-15-42.9-29.8-86.1-43.8-129.4c-2.9-8.6-7-11.1-15.7-11.1c-44.9,0.3-89.7,0.3-134.6,0c-8.8-0.1-13.2,2.7-15.6,11.2
		c-5.3,17.8-11.6,35.4-17.7,53.4C67.5,570.4,34.2,452.5,41,398.7c15.9,11.1,31.4,21.3,46.3,32.4c6,4.5,10.3,4.2,16-0.3
		c35.8-27.7,71.7-55.3,107.8-82.6c6.5-4.9,8.3-9.1,5.6-17.2c-13.7-43.3-26.9-87-39.9-130.5c-2.4-8.2-6.6-10.8-14.8-10.5
		c-17,0.5-34.3,0.1-54.9,0.1c48.1-64.6,108.6-106.4,184.2-132.9c-5.9,17.7-10.2,33.5-16.6,48.4c-4.8,11.3-3,17.8,7.4,24.9
		c36.2,25,71.9,50.8,107.5,76.8c6.6,4.8,11.2,5.4,18,0.3c36.6-26.7,73.4-52.9,110.4-79.1c7.4-5.2,10-10,6.4-19.1
		c-6.5-16.9-11.8-34.5-18.6-54.6C582.7,81.1,643.3,124.4,693,190c-20.2,0-37.1,0.8-53.9-0.2c-12.5-0.8-18.6,3-22.1,15.7
		c-11.8,41.8-24.8,83.4-38,124.9c-2.9,8.7-1,13.2,6,18.3c36.8,27.1,73.3,54.6,109.5,82.4c5.9,4.6,10.2,4.5,15.9-0.1
		c14.7-11.4,30-22.3,48-35.7c-2.2,81.5-25.9,152.1-70.8,219c-6.7-19.9-13.2-37.3-18.4-55.1c-2.4-8.3-6.3-11.6-15.4-11.6
		c-44.5,0.4-89,0.3-133.4,0.1c-8.1,0-12.2,2.2-15,10.4c-15,43.8-30.5,87.5-46.3,131c-2.7,7.5-1.5,11.8,5.1,16.1
		C479.9,715.4,495,726.4,512,738.2z M397.5,491.1c20.8,0,41.6-0.2,62.4,0.1c7,0.1,10.9-2.5,13.2-9.1c13.5-39.5,27.4-79,40.7-118.6
		c1-3.2-1-9.5-3.7-11.5c-34.9-25-70.3-49.7-105.7-74.1c-2.5-1.7-8.1-1.7-10.5-0.1c-35.1,24.1-69.9,48.7-104.9,72.9
		c-5.9,4.1-6.9,7.9-4.6,14.8c13.2,38.4,25.9,76.9,38.4,115.5c2.6,7.8,6.7,10.2,14.7,10C357.4,490.8,377.5,491.2,397.5,491.1z"/>
	<path d="M397.5,491.1c-20,0-40.1-0.3-60.2,0.2c-7.9,0.2-12.2-2.2-14.7-10c-12.5-38.6-25.2-77.2-38.4-115.5
		c-2.3-6.8-1.3-10.6,4.6-14.8c35-24.2,69.8-48.8,104.9-72.9c2.5-1.6,8.1-1.6,10.5,0.1c35.4,24.3,70.8,49,105.7,74.1
		c2.8,1.9,4.8,8.3,3.7,11.5c-13.2,39.6-27.1,79.1-40.7,118.6c-2.2,6.6-6,9.2-13.2,9.1C439.1,490.9,418.4,491.1,397.5,491.1z"/>
</g>
</svg>
