<?xml version="1.0" encoding="utf-8"?>
<!-- Generator: Adobe Illustrator 26.0.1, SVG Export Plug-In . SVG Version: 6.00 Build 0)  -->
<svg version="1.1" id="Layer_1" xmlns="http://www.w3.org/2000/svg" xmlns:xlink="http://www.w3.org/1999/xlink" x="0px" y="0px"
	 viewBox="0 0 58.6 50.7" style="enable-background:new 0 0 58.6 50.7;" xml:space="preserve">
<style type="text/css">
	.st0{fill:none;stroke:#000000;stroke-width:3;stroke-miterlimit:10;}
</style>
<path d="M29.1,4.1C34.7,4.1,39.2,9,39.2,15s-4.5,10.8-10.2,10.8c-5.6,0-10.2-4.9-10.2-10.9S23.5,4.1,29.1,4.1z M28.9,23
	c4.2,0.1,7.6-3.4,7.7-7.8c0.1-4.5-3.2-8.2-7.4-8.3c-4.2-0.1-7.6,3.5-7.7,8C21.5,19.3,24.7,22.9,28.9,23L28.9,23z"/>
<path d="M55.5,21.8c0,4.4-3.4,8-7.5,8c-4.2,0-7.5-3.6-7.5-8s3.4-8.1,7.6-8S55.5,17.4,55.5,21.8z M53.6,21.8c0-3.3-2.4-5.9-5.5-6
	c-3.1-0.1-5.6,2.6-5.7,5.9c0,0,0,0,0,0c-0.1,3.4,2.8,6,5.6,6C51.1,27.7,53.6,25.1,53.6,21.8L53.6,21.8z"/>
<path d="M2.6,21.7c0-4.4,3.4-8,7.5-7.9c4.2,0,7.5,3.6,7.5,8s-3.4,8-7.5,8C6,29.8,2.6,26.2,2.6,21.7z M10.1,27.7
	c3.1,0,5.6-2.6,5.6-5.9c0-3.3-2.5-6-5.6-6c-3.1,0-5.6,2.6-5.6,5.9S7,27.7,10.1,27.7z"/>
<path d="M8.2,50.7c0,0-1.5-23.8,21.3-23.6c20.7,0.3,21.4,23.6,21.4,23.6H8.2z"/>
<path class="st0" d="M37.5,31.8c0,0,20-0.3,20.4,18.9"/>
<path class="st0" d="M19,31.8c0,0-17-0.3-17.3,18.9"/>
</svg>
