<?xml version="1.0" encoding="utf-8"?>
<!-- Generator: Adobe Illustrator 26.0.1, SVG Export Plug-In . SVG Version: 6.00 Build 0)  -->
<svg version="1.1" id="Layer_1" xmlns="http://www.w3.org/2000/svg" xmlns:xlink="http://www.w3.org/1999/xlink" x="0px" y="0px"
	 viewBox="0 0 57.4 50.6" style="enable-background:new 0 0 57.4 50.6;" xml:space="preserve">
<style type="text/css">
	.st0{fill:none;stroke:#000000;stroke-width:3;stroke-miterlimit:10;}
</style>
<path d="M28.1,3.6c5,0,9.1,4.5,9.1,10.1s-4.1,10.1-9.1,10.1c-5.1,0-9.2-4.5-9.2-10.1S23.1,3.6,28.1,3.6z M28,21.1
	c3.8,0.1,6.9-3.2,6.9-7.3C35,9.7,32,6.3,28.2,6.2c-3.8-0.1-6.9,3.3-6.9,7.4C21.2,17.8,24.2,21.1,28,21.1L28,21.1z"/>
<path d="M51.9,20c0,4.1-3,7.4-6.8,7.4c-3.7,0-6.8-3.3-6.8-7.4c0-4.1,3.1-7.5,6.8-7.5C48.9,12.6,51.9,15.9,51.9,20z M50.2,20
	c0-3.1-2.2-5.5-5-5.6c-2.8-0.1-5,2.4-5.1,5.5c0,0,0,0,0,0c-0.1,3.1,2.6,5.6,5.1,5.6C47.9,25.5,50.1,23.1,50.2,20L50.2,20z"/>
<path d="M4.3,20c0-4.1,3.1-7.4,6.8-7.4c3.7,0,6.8,3.3,6.7,7.5c0,4.1-3,7.4-6.8,7.4S4.3,24.1,4.3,20z M11,25.6c2.8,0,5-2.5,5-5.5
	c0-3.1-2.2-5.6-5-5.6S6,16.9,6,20S8.2,25.6,11,25.6z"/>
<path d="M9.3,47C9.3,47,8,24.7,28.5,25C47.2,25.2,47.8,47,47.8,47H9.3z"/>
<path class="st0" d="M35.7,29.4c0,0,18-0.3,18.4,17.6"/>
<path class="st0" d="M19,29.4C19,29.4,3.7,29,3.4,47"/>
</svg>
