<?xml version="1.0" encoding="utf-8"?>
<!-- Generator: Adobe Illustrator 26.0.1, SVG Export Plug-In . SVG Version: 6.00 Build 0)  -->
<svg version="1.1" id="Layer_1" xmlns="http://www.w3.org/2000/svg" xmlns:xlink="http://www.w3.org/1999/xlink" x="0px" y="0px"
	 viewBox="0 0 245.9 210.3" style="enable-background:new 0 0 245.9 210.3;" xml:space="preserve">
<style type="text/css">
	.st0{fill:#FFFFFF;}
</style>
<path class="st0" d="M124,201.5c-7.8-0.6-15.6-0.9-23.3-2c-6.2-0.9-12.2-2.7-18.3-4.2c-2.3-0.6-4.6-1.8-6.9-2.1
	c-1.6-0.2-3.3,0.6-4.9,1c-3.2,1-6.5,2-9.7,3c-3.5,1.1-7,2.2-10.5,3.2c-3.1,1-6.3,1.9-9.4,2.8c-4.6,1.4-9.2,2.8-13.8,4.2
	c-2.9,0.9-5.7,1.8-8.6,2.6c-0.5,0.1-1.4,0.1-1.6-0.2c-0.2-0.5-0.2-1.1,0-1.6c1.6-4,3.4-7.9,5.1-11.9c2.3-5.4,4.5-10.8,6.8-16.2
	c1.4-3.2,2.9-6.4,4.1-9.7c0.3-0.9,0.1-1.8-0.5-2.5c-5.7-5-10.7-10.6-15-16.8c-3.3-5-6.3-10.2-9.1-15.5c-1.8-3.5-3.3-7.1-4.4-10.9
	c-1.1-4-2-8.1-2.7-12.2c-1.2-5.8-1.6-11.9-1-17.8C1,88.9,2,83.1,3.4,77.4c1.8-7.2,4.6-14,8.5-20.4c4.4-7.9,10-15.1,16.7-21.2
	c5.4-5,11.1-9.6,17.1-13.7c5.3-3.4,10.8-6.4,16.5-9C66.5,11,71,9.1,75.7,7.5c3.3-1.1,6.6-2,10-2.8c5-1.1,10.1-2.1,15.2-3.2
	c0.4-0.1,0.9-0.2,1.4-0.2c8.8-0.7,17.6-1.9,26.5-1.1c5.1,0.4,10.3,1.1,15.4,1.9c4.8,0.8,9.7,1.6,14.4,2.8c4.6,1.2,9.2,2.6,13.6,4.4
	c5.6,2.2,11.1,4.5,16.5,7.2c12.1,6.1,23,14.4,32.2,24.4c7.3,7.7,13.2,16.7,17.5,26.4c2.1,5.5,3.9,11.1,5.4,16.8
	c2.1,7.7,2.8,15.7,2,23.6c-0.6,7-2,14-4.2,20.7c-3,9.1-7.5,17.6-13.3,25.3c-7.7,10.2-17.1,19-27.9,25.9c-7.4,4.8-15.4,8.9-23.7,12
	c-6.5,2.5-13.1,4.5-19.8,6c-10.7,2.5-21.6,3.6-32.6,3.4L124,201.5z"/>
</svg>
