<?xml version="1.0" encoding="utf-8"?>
<!-- Generator: Adobe Illustrator 26.0.1, SVG Export Plug-In . SVG Version: 6.00 Build 0)  -->
<svg version="1.1" id="Layer_1" xmlns="http://www.w3.org/2000/svg" xmlns:xlink="http://www.w3.org/1999/xlink" x="0px" y="0px"
	 viewBox="0 0 57.4 50.6" style="enable-background:new 0 0 57.4 50.6;" xml:space="preserve">
<style type="text/css">
	.st0{fill:none;stroke:#000000;stroke-width:2;stroke-miterlimit:10;}
</style>
<path class="st0" d="M33.9,10h-8.5c0,0-3.9-5-9.4-4C9.3,7.2-3.3,32.2,3.7,42.4c0.9,1.4,2.6,1.7,4.1,1.4c8.4-1.7,13.4-10.7,13.4-10.7
	l17,0c0,0,5.6,11.9,11.3,11.9s8.6-12.9,4.1-25.2S44,6.1,41.8,6c-1.8-0.1-3.8,0.1-8.7,4"/>
<ellipse cx="37.6" cy="21.8" rx="2.1" ry="1.9"/>
<ellipse cx="47.1" cy="21.8" rx="2.1" ry="1.9"/>
<ellipse cx="42.4" cy="25.7" rx="2.1" ry="1.9"/>
<ellipse cx="42.4" cy="17.4" rx="2.1" ry="1.9"/>
<rect x="14.2" y="16.1" width="2.7" height="10.4"/>
<rect x="14" y="16.4" transform="matrix(-1.836970e-16 1 -1 -1.836970e-16 36.8769 5.909)" width="3" height="9.9"/>
</svg>
