<?xml version="1.0" encoding="utf-8"?>
<!-- Generator: Adobe Illustrator 26.0.1, SVG Export Plug-In . SVG Version: 6.00 Build 0)  -->
<svg version="1.1" id="Layer_1" xmlns="http://www.w3.org/2000/svg" xmlns:xlink="http://www.w3.org/1999/xlink" x="0px" y="0px"
	 viewBox="0 0 57.4 50.6" style="enable-background:new 0 0 57.4 50.6;" xml:space="preserve">
<g>
	<path d="M28.7,1c9.3,0,17.7,6.1,20.5,14.9c0.8,2.5,1.2,5,1,7.6c0,0.3,0.1,0.5,0.3,0.7c1.6,1.3,2.2,2.9,1.9,5
		c-0.6,3.6-1.3,7.3-1.9,10.9c-0.3,1.6-0.6,3.3-0.9,4.9c-0.5,2.6-2.9,4.3-5.6,4c-3-0.3-5.1-2.8-4.7-5.7c0.2-1.4,0.5-2.8,0.7-4.3
		c0.4-2.2,0.8-4.4,1.2-6.6c0.3-1.8,0.6-3.6,1-5.4c0.4-1.8,1.4-3,3.1-3.7c0.4-0.2,0.6-0.4,0.6-0.8c0-2.7-0.6-5.2-1.7-7.6
		c-0.1-0.3-0.3-0.5-0.7-0.4c-1.2,0.1-2.2-0.3-3-1.2c-1.9-2.1-4.3-3.7-7-4.5c-5.7-1.7-10.8-0.6-15.4,3.3c-0.5,0.4-0.9,0.8-1.3,1.3
		c-0.8,0.9-1.8,1.3-3,1.1c-0.3,0-0.4,0-0.5,0.3c-1.3,2.5-1.8,5.2-1.8,8c0,0.3,0.1,0.4,0.4,0.5c1.9,0.7,3,2.1,3.4,4.1
		c0.7,4,1.4,8,2.1,11.9c0.2,1.3,0.5,2.6,0.7,3.9c0.4,2.7-1.5,5.3-4.1,5.7c-2.4,0.4-4.4-0.4-5.6-2.4c-0.5-0.8-0.6-1.7-0.8-2.6
		C6.7,39.3,5.9,34.4,5,29.7c-0.3-1.7-0.1-3.3,1-4.7c0.2-0.2,0.4-0.4,0.6-0.6c0.5-0.3,0.5-0.6,0.5-1.1C6.8,14.8,11.8,6.6,19.6,3
		C22.5,1.7,25.5,1,28.7,1z"/>
	<path d="M53.5,28.5c1.4,0.6,2.4,1.5,3.1,2.8c0.7,1.3,0.9,2.8,0.7,4.2c-0.3,2-0.7,3.9-1.1,5.9C55.7,44,53.6,46,51,46.3
		c-0.2,0-0.4,0-0.6,0C51.4,40.4,52.4,34.5,53.5,28.5z"/>
	<path d="M7,46.4c-1.2,0-2.3-0.4-3.2-1.1c-1.7-1.2-2.5-2.9-2.8-4.9c-0.2-1.6-0.5-3.2-0.8-4.7c-0.6-2.9,0.7-5.7,3.3-7
		c0.1-0.1,0.3-0.1,0.5-0.2C4.9,34.5,6,40.4,7,46.4z"/>
</g>
</svg>
