<?xml version="1.0" encoding="utf-8"?>
<!-- Generator: Adobe Illustrator 26.0.1, SVG Export Plug-In . SVG Version: 6.00 Build 0)  -->
<svg version="1.1" id="Layer_1" xmlns="http://www.w3.org/2000/svg" xmlns:xlink="http://www.w3.org/1999/xlink" x="0px" y="0px"
	 viewBox="0 0 57.4 50.6" style="enable-background:new 0 0 57.4 50.6;" xml:space="preserve">
<path d="M31,0.2l26,22.8c0.2,0.2,0.3,0.4,0.3,0.7l0,0c0,1.7-1.5,3.1-3.2,3.1h-3.3c-0.6,0-1.1,23.1-1.1,23.7v-0.9
	c0,0.5-0.4,0.9-0.9,0.9H36.6c-0.5,0-1.9-0.3-1.9-0.7L35,35.1c0-1.2,0.1-1.9-1.2-1.9h-9c-1.2,0-1.6,0.4-1.6,1.6l0.2,14.9
	c0,0.5-1.2,0.8-1.7,0.8h-13c-0.5,0-0.9-0.4-0.9-0.9l0,0c0-0.6-0.4-22.7-1-22.7l-3.4,0.1c-1.9,0-3.4-1.4-3.4-3.3l0,0
	c0-0.2,0.1-0.5,0.3-0.7L26.5,0.2c0.2-0.1,2-0.2,2.2-0.2h1.8C30.6,0,30.8,0.1,31,0.2z"/>
</svg>
