<?xml version="1.0" encoding="utf-8"?>
<!-- Generator: Adobe Illustrator 26.0.1, SVG Export Plug-In . SVG Version: 6.00 Build 0)  -->
<svg version="1.1" id="Layer_1" xmlns="http://www.w3.org/2000/svg" xmlns:xlink="http://www.w3.org/1999/xlink" x="0px" y="0px"
	 viewBox="0 0 58.6 50.7" style="enable-background:new 0 0 58.6 50.7;" xml:space="preserve">
<style type="text/css">
	.st0{fill:url(#SVGID_1_);}
</style>
<g>
	
		<linearGradient id="SVGID_1_" gradientUnits="userSpaceOnUse" x1="0" y1="26.6584" x2="58.6292" y2="26.6584" gradientTransform="matrix(1 0 0 -1 0 52)">
		<stop  offset="0" style="stop-color:#FFFFFF"/>
		<stop  offset="1" style="stop-color:#FFFFFF"/>
	</linearGradient>
	<path class="st0" d="M29.3,50.7c-2.3-2.3-4.5-4.6-6.8-6.8c-6-6-11.9-11.9-17.9-17.9C1.5,22.9,0,19.2,0,14.9C0,7.5,5.7,1.1,13,0.2
		c5-0.7,9.3,0.8,12.9,4.4c1.1,1,2.2,2.2,3.4,3.4c1.2-1.2,2.3-2.4,3.5-3.5C35.9,1.4,39.7-0.2,44,0c8,0.3,13.7,6.4,14.5,13.2
		c0.6,4.9-0.9,9.1-4.3,12.6C46.1,33.9,38.1,41.9,30,50C29.8,50.2,29.6,50.4,29.3,50.7z"/>
</g>
</svg>
