<?xml version="1.0" encoding="utf-8"?>
<!-- Generator: Adobe Illustrator 26.0.1, SVG Export Plug-In . SVG Version: 6.00 Build 0)  -->
<svg version="1.1" id="Layer_1" xmlns="http://www.w3.org/2000/svg" xmlns:xlink="http://www.w3.org/1999/xlink" x="0px" y="0px"
	 viewBox="0 0 57.4 50.6" style="enable-background:new 0 0 57.4 50.6;" xml:space="preserve">
<style type="text/css">
	.st0{fill:none;stroke:#000000;stroke-width:2;stroke-miterlimit:10;}
	.st1{fill:none;stroke:#000000;stroke-width:2;stroke-miterlimit:10.0001;}
</style>
<rect y="24.9" width="9.6" height="21.6"/>
<path d="M15.3,26.9l6.4,0.3c0.5,0,0.9,0.2,1.3,0.4c1.7,1.2,6.6,4.5,7.3,4.5h6.8c1.6,0,2.9,1.5,2.4,3c-0.1,0.2-0.2,0.4-0.3,0.6
	c-1,0.9-2.4,1.7-5.7,1.7s-5.3,0-5.3,0s-1.6,2.5,2.5,2.8c2.6,0.2,5.1,0.1,6.5,0.1c0.8,0,1.4-0.4,1.9-1c1.4-1.8,4.6-5.8,7.8-7.4
	c4.2-2,9.4-2.8,10.2-0.6c0.8,2.2,0,4.6-2,5.9c-2,1.3-19,11.6-20,11.9C34,49.5,31.3,51,27,50.5c-3.2-0.4-9.9-3.2-12.9-4.5
	c-0.9-0.4-1.5-1.3-1.5-2.3V29.4C12.7,27.9,13.9,26.8,15.3,26.9z"/>
<polyline class="st0" points="25,1 54.2,10.1 49.9,24 "/>
<rect x="23.3" y="0" transform="matrix(0.3055 -0.9522 0.9522 0.3055 6.3756 40.4359)" class="st1" width="15.2" height="31.6"/>
<circle cx="30.9" cy="15.9" r="2.5"/>
</svg>
