<?xml version="1.0" encoding="utf-8"?>
<!-- Generator: Adobe Illustrator 26.0.1, SVG Export Plug-In . SVG Version: 6.00 Build 0)  -->
<svg version="1.1" id="Layer_1" xmlns="http://www.w3.org/2000/svg" xmlns:xlink="http://www.w3.org/1999/xlink" x="0px" y="0px"
	 viewBox="0 0 57.4 50.6" style="enable-background:new 0 0 57.4 50.6;" xml:space="preserve">
<style type="text/css">
	.st0{fill:#FFFFFF;}
</style>
<path class="st0" d="M25.9,23.4H7.3c-0.7,0-1.2-0.5-1.2-1.2V10.6c0-0.7,0.5-1.2,1.2-1.2h18.6c0.7,0,1.2,0.5,1.2,1.2v11.6
	C27.1,22.8,26.6,23.4,25.9,23.4z"/>
<path class="st0" d="M50.6,23.4H32c-0.7,0-1.2-0.5-1.2-1.2V10.6c0-0.7,0.5-1.2,1.2-1.2h18.6c0.7,0,1.2,0.5,1.2,1.2v11.6
	C51.8,22.8,51.3,23.4,50.6,23.4z"/>
<path class="st0" d="M25.9,41.2H7.3c-0.7,0-1.2-0.5-1.2-1.2V28.4c0-0.7,0.5-1.2,1.2-1.2h18.6c0.7,0,1.2,0.5,1.2,1.2V40
	C27.1,40.7,26.6,41.2,25.9,41.2z"/>
<path class="st0" d="M50.6,41.2H32c-0.7,0-1.2-0.5-1.2-1.2V28.4c0-0.7,0.5-1.2,1.2-1.2h18.6c0.7,0,1.2,0.5,1.2,1.2V40
	C51.8,40.7,51.3,41.2,50.6,41.2z"/>
</svg>
