<?xml version="1.0" encoding="utf-8"?>
<!-- Generator: Adobe Illustrator 26.0.1, SVG Export Plug-In . SVG Version: 6.00 Build 0)  -->
<svg version="1.1" id="Layer_1" xmlns="http://www.w3.org/2000/svg" xmlns:xlink="http://www.w3.org/1999/xlink" x="0px" y="0px"
	 viewBox="0 0 57.4 50.6" style="enable-background:new 0 0 57.4 50.6;" xml:space="preserve">
<g>
	<path d="M5,25.3C5,11.3,16.3,0,30.2,0C44,0,55.5,11.6,55.4,25.4S44,50.4,30.2,50.5C16.1,50.5,5,39.3,5,25.3z M30.1,48.4
		c12.9,0,23.3-10.3,23.3-23.1S43,2,30.2,2C17.3,1.9,6.8,12.4,6.7,25.2C6.7,37.9,17.1,48.4,30.1,48.4z"/>
</g>
<path d="M34.6,14.3c0,0,1.3-0.4,3.1,0.4c1.8,0.8,2.1,1.4,2.1,1.4l3.2-1l-1.8,2.5l2.4-0.4l-2.7,2.5c-0.2,0.2-0.3,0.4-0.2,0.6
	c0,1.3,0,5.8-2.3,9.5c-2.7,4.4-7.4,5.4-10.5,6c-3.2,0.6-9-0.6-10.5-2c0,0,6.6-0.3,7.6-2v-0.6c0,0-3.2-0.4-4.6-3.1l1.9-0.4
	c0.1,0,0.1-0.2,0-0.2c-1-0.3-3.4-1.5-4.2-4.9h2.4c0,0-3.3-3.4-2-7.1c0,0,5,6.1,11.7,5.5c0,0-0.3-3.8,1.8-5.5
	C33.7,14.1,34.6,14.3,34.6,14.3z"/>
</svg>
