<?xml version="1.0" encoding="utf-8"?>
<!-- Generator: Adobe Illustrator 26.0.1, SVG Export Plug-In . SVG Version: 6.00 Build 0)  -->
<svg version="1.1" id="Layer_1" xmlns="http://www.w3.org/2000/svg" xmlns:xlink="http://www.w3.org/1999/xlink" x="0px" y="0px"
	 viewBox="0 0 57.4 50.6" style="enable-background:new 0 0 57.4 50.6;" xml:space="preserve">
<g>
	<path d="M5,25.2C5,11.2,16.2,0,30.1,0c13.8,0,25.2,11.5,25.1,25.3c-0.1,13.8-11.3,25-25.1,25C16.1,50.3,5,39.3,5,25.2z M30,48.3
		c12.9,0,23.2-10.2,23.2-23.1C53.2,12.4,42.9,2,30.1,2C17.3,2,6.8,12.4,6.8,25.1C6.7,37.8,17.1,48.3,30,48.3z"/>
</g>
<g>
	<path d="M18.5,36.9c0.2-1.1,0.3-2,0.5-2.6c0.8-2.3,0.5-4.3-0.2-6.7c-1.4-4.8-0.1-10.2,3.7-13.4c5.4-4.6,12.9-4.2,17.7,0.6
		c4.9,5,5.1,13.4-0.4,18.5c-3.3,3.1-8,3.9-12.4,2.8c-2.4-0.7-4.6-0.5-6.9,0.2C19.9,36.5,19.6,36.7,18.5,36.9z M21.6,33.9
		c2.9-0.2,4.4-0.5,6.5,0.2c2.7,0.8,5.7,0.8,8.1-0.7c6.8-4.3,7.2-12.5,2.2-17.2c-3.4-3.2-8.6-3.8-12.6-1.4c-4.4,2.6-6.2,7.7-4.7,12.5
		C21.6,29.2,22.3,32.1,21.6,33.9z"/>
	<path d="M32.3,27.1c0.7-0.6,1.2-1.4,1.6-1.4c1.1,0.2,2.1,0.7,3.2,1.1c-0.4,0.8-0.6,1.9-1.2,2.3c-0.7,0.4-1.9,0.5-2.7,0.3
		c-3.7-0.9-6.2-3.3-7.8-6.6c-0.3-0.6-0.6-1.5-0.3-2c0.4-0.9,1.2-1.7,1.8-2.5c0.7,0.9,2.1,2.2,1.8,2.7C27,24.9,30.5,25.3,32.3,27.1z"
		/>
</g>
</svg>
