<?xml version="1.0" encoding="utf-8"?>
<!-- Generator: Adobe Illustrator 26.0.1, SVG Export Plug-In . SVG Version: 6.00 Build 0)  -->
<svg version="1.1" id="Layer_1" xmlns="http://www.w3.org/2000/svg" xmlns:xlink="http://www.w3.org/1999/xlink" x="0px" y="0px"
	 viewBox="0 0 57.4 50.6" style="enable-background:new 0 0 57.4 50.6;" xml:space="preserve">
<g>
	<path d="M6.5,25.1C6.5,12,17,1.5,30,1.5c12.9,0,23.6,10.8,23.5,23.7C53.4,38.1,42.9,48.5,30,48.6C16.9,48.6,6.5,38.2,6.5,25.1z
		 M29.9,46.7c12,0,21.7-9.6,21.7-21.6c0-12-9.6-21.7-21.6-21.7C18,3.3,8.2,13.1,8.1,25C8.1,36.9,17.8,46.7,29.9,46.7z"/>
</g>
<g>
	<path d="M30.8,34.5c-2.6,0-5.2-0.1-7.7-0.2c-0.5,0-1-0.1-1.5-0.2c-1.4-0.3-2.1-1.3-2.6-2.5c-0.5-1.2-0.7-2.6-0.7-3.9
		c-0.1-2.1-0.1-4.2,0.1-6.3c0.1-1.2,0.4-2.3,1-3.4c0.7-1.2,1.8-1.9,3.1-1.9c3.5-0.1,7-0.1,10.5-0.2c1.8,0,3.6,0,5.4,0.1
		c0.6,0,1.2,0.1,1.8,0.2c1.3,0.3,2,1.3,2.5,2.5c0.5,1.3,0.7,2.7,0.7,4.1c0,1.8,0,3.7-0.1,5.5c-0.1,1.4-0.3,2.7-1,3.9
		c-0.7,1.3-1.8,1.9-3.2,2c-2.2,0.1-4.4,0.1-6.5,0.2C32,34.5,31.4,34.5,30.8,34.5C30.8,34.5,30.8,34.5,30.8,34.5z M30.8,32.1
		c0,0,0,0.1,0,0.1c2.7-0.1,5.3-0.1,8-0.2c0.9,0,1.4-0.4,1.7-1.2c0.1-0.1,0.1-0.3,0.2-0.4c0.2-1,0.4-2,0.4-3c0.1-1.7,0-3.4-0.1-5.2
		c0-1-0.2-2-0.7-2.9c-0.3-0.6-0.8-0.9-1.4-0.9c-1,0-2-0.1-3-0.1c-4.5,0-8.9-0.1-13.4,0.1c-0.7,0-1.2,0.3-1.4,0.9
		c-0.4,0.9-0.5,1.8-0.6,2.7c-0.2,2.2-0.2,4.5,0.1,6.7c0.1,0.9,0.3,1.7,0.7,2.5c0.2,0.4,0.5,0.6,0.9,0.6c0.4,0,0.9,0.1,1.3,0.1
		C26,32.1,28.4,32.1,30.8,32.1z"/>
	<path d="M28.5,28.7c0-2.3,0-4.6,0-6.9c1.9,1.2,3.8,2.3,5.8,3.5C32.3,26.4,30.5,27.6,28.5,28.7z"/>
</g>
</svg>
